<svg xmlns="http://www.w3.org/2000/svg" viewBox="0 0 381.03 72.02"><defs><style>.cls-1{fill:#0b3d57;}.cls-2{fill:#0a4456;}.cls-3{fill:#85c80b;}</style></defs><g id="Layer_2" data-name="Layer 2"><g id="Layer_1-2" data-name="Layer 1"><polygon class="cls-1" points="45.15 60.37 45.15 71.01 0 71.01 0 0 11.68 0 11.68 60.37 45.15 60.37"/><rect class="cls-1" x="54.38" y="22.32" width="11.16" height="48.69"/><path class="cls-1" d="M73.76,32.46V22.32h34.49V32.46ZM85.43,71V2H96.59V71Z"/><path class="cls-1" d="M144.42,60.26a18.18,18.18,0,0,1-6.95,1.31,15.36,15.36,0,0,1-7.72-1.88l-.21-.12,11.17-8.75,8.81-6.91,2.85-2.22,6.41-5a22.81,22.81,0,0,0-1.58-3.61A22.18,22.18,0,0,0,149,24.45a22.82,22.82,0,0,0-12-3.16,24.89,24.89,0,0,0-21.81,12.44,25.06,25.06,0,0,0-3.35,12.94,25,25,0,0,0,3.41,13,24.55,24.55,0,0,0,9.23,9.09A26.25,26.25,0,0,0,137.57,72a27.56,27.56,0,0,0,10.75-2.12,22.44,22.44,0,0,0,8.62-6.31l-7.1-7.18A14.52,14.52,0,0,1,144.42,60.26Zm-20.69-7.9a13.68,13.68,0,0,1-.47-1.54,18.72,18.72,0,0,1-.5-4.47,19,19,0,0,1,.52-4.66,14.7,14.7,0,0,1,1.2-3.2,12.72,12.72,0,0,1,4.87-5.12,14.47,14.47,0,0,1,7.4-1.81,13.19,13.19,0,0,1,6.85,1.62,11.65,11.65,0,0,1,1.69,1.2l-8.77,7.31-10.94,9.13Z"/><path class="cls-1" d="M184.74,71,162.53,22.32H174.9L191.84,62h-7.3l17-39.66h11.87L191.24,71Z"/><path class="cls-1" d="M301.61,22.32l-7.46,11.1,5.9,8.94,14.44-20Zm-21,0H267.11l13.57.11Z"/><path class="cls-2" d="M341.79,21.29a4.87,4.87,0,0,0-.55,0h1.24C342.25,21.29,342,21.29,341.79,21.29Z"/><path class="cls-1" d="M341.24,21.31a6.78,6.78,0,0,0-.91,0,21.26,21.26,0,0,0-10.47,3.36,24.31,24.31,0,0,0-8.41,9.12,26.73,26.73,0,0,0-3.1,12.94,26.48,26.48,0,0,0,3.1,12.82,23.9,23.9,0,0,0,8.41,9.08A21.89,21.89,0,0,0,341.79,72a20.48,20.48,0,0,0,9.93-2.38,17.77,17.77,0,0,0,5-4V71h11.17V21.31Zm12.37,36a12.92,12.92,0,0,1-10,4.15,13.4,13.4,0,0,1-7.14-1.87,13.16,13.16,0,0,1-4.87-5.21,16.24,16.24,0,0,1-1.77-7.71A16.31,16.31,0,0,1,331.59,39a13.06,13.06,0,0,1,4.87-5.22,13.49,13.49,0,0,1,7.14-1.88h13.64v12.2a22.18,22.18,0,0,1,.17,2.62A15.16,15.16,0,0,1,353.61,57.31Z"/><path class="cls-2" d="M341.24,21.31a6.78,6.78,0,0,0-.91,0v0Z"/><path class="cls-1" d="M247.52,60.26a18.23,18.23,0,0,1-7,1.31,15.29,15.29,0,0,1-7.71-1.88l-.21-.12,11.17-8.75,8.81-6.91,2.84-2.22,6.41-5a21.93,21.93,0,0,0-1.58-3.61,22.54,22.54,0,0,0-4-5.33,23.12,23.12,0,0,0-4.26-3.29,22.78,22.78,0,0,0-12-3.16,24.78,24.78,0,0,0-12.73,3.35,24.93,24.93,0,0,0-12.44,22,25.11,25.11,0,0,0,3.41,13,24.58,24.58,0,0,0,9.24,9.09A26.22,26.22,0,0,0,240.67,72a27.63,27.63,0,0,0,10.75-2.12A22.52,22.52,0,0,0,260,63.59l-7.11-7.18A14.4,14.4,0,0,1,247.52,60.26Zm-20.7-7.9a11.84,11.84,0,0,1-.46-1.54,18.71,18.71,0,0,1-.51-4.47,19,19,0,0,1,.53-4.66,13.74,13.74,0,0,1,1.2-3.2,12.65,12.65,0,0,1,4.87-5.12,14.41,14.41,0,0,1,7.39-1.81,13.25,13.25,0,0,1,6.86,1.62,11,11,0,0,1,1.68,1.2l-8.77,7.31-10.94,9.13Z"/><rect class="cls-3" x="367.83" y="8.15" width="13.2" height="13.2"/><rect class="cls-2" x="54.38" y="6.68" width="11.01" height="11.01"/><polygon class="cls-1" points="315.4 71.01 302.01 71.01 290.65 54.27 290.34 54.72 279.19 71.01 266.2 71.01 284.16 46.12 284.18 46.07 267.11 22.32 280.68 22.43 280.81 22.43 294.45 41.56 315.4 71.01"/><polygon class="cls-1" points="267.11 22.32 284.18 46.07 284.16 46.12 267.11 22.32"/></g></g></svg>