<svg xmlns="http://www.w3.org/2000/svg" viewBox="0 0 314.74 59.49"><defs><style>.cls-1{fill:#fff;}.cls-2{fill:#0a4456;}.cls-3{fill:#85c80b;}</style></defs><g id="Layer_2" data-name="Layer 2"><g id="Layer_1-2" data-name="Layer 1"><polygon class="cls-1" points="37.29 49.86 37.29 58.66 0 58.66 0 0 9.64 0 9.64 49.86 37.29 49.86"/><rect class="cls-1" x="44.92" y="18.43" width="9.22" height="40.22"/><path class="cls-1" d="M60.93,26.81V18.43H89.42v8.38Zm9.64,31.85v-57h9.21v57Z"/><path class="cls-1" d="M119.3,49.78a15.21,15.21,0,0,1-5.75,1.08,12.76,12.76,0,0,1-6.37-1.55,1.51,1.51,0,0,0-.17-.1L116.23,42l7.28-5.71,2.35-1.83,5.3-4.14a18.45,18.45,0,0,0-1.31-3,18.8,18.8,0,0,0-3.27-4.4,18.55,18.55,0,0,0-3.52-2.72,18.76,18.76,0,0,0-9.92-2.61,20.59,20.59,0,0,0-18,10.27,20.72,20.72,0,0,0-2.77,10.69,20.66,20.66,0,0,0,2.82,10.72,20.2,20.2,0,0,0,7.62,7.51,21.71,21.71,0,0,0,10.85,2.71,22.91,22.91,0,0,0,8.88-1.75,18.62,18.62,0,0,0,7.12-5.21l-5.87-5.94A11.86,11.86,0,0,1,119.3,49.78Zm-17.1-6.53a11.55,11.55,0,0,1-.38-1.27,16.74,16.74,0,0,1,0-7.54,11.33,11.33,0,0,1,1-2.65,10.51,10.51,0,0,1,4-4.23A11.9,11.9,0,0,1,113,26.07a10.88,10.88,0,0,1,5.66,1.34,8.72,8.72,0,0,1,1.39,1l-7.24,6-9,7.54Z"/><path class="cls-1" d="M152.61,58.66,134.25,18.43h10.23l14,32.77h-6l14.08-32.77h9.8L158,58.66Z"/><path class="cls-1" d="M249.14,18.44,243,27.6l4.88,7.4,11.92-16.56Zm-17.34,0H220.64l11.22.08Z"/><path class="cls-2" d="M282.33,17.59h0Z"/><path class="cls-1" d="M281.88,17.6a4.59,4.59,0,0,0-.75,0,17.49,17.49,0,0,0-8.65,2.77,20.12,20.12,0,0,0-7,7.54A22.06,22.06,0,0,0,263,38.64a21.82,21.82,0,0,0,2.56,10.58,19.81,19.81,0,0,0,7,7.51,18.15,18.15,0,0,0,9.85,2.76,17,17,0,0,0,8.2-2,14.58,14.58,0,0,0,4.11-3.28v4.41h9.23V17.6ZM292.1,47.34a10.67,10.67,0,0,1-8.27,3.43,11,11,0,0,1-5.9-1.55,10.86,10.86,0,0,1-4-4.3,13.48,13.48,0,0,1-1.46-6.37,13.48,13.48,0,0,1,1.46-6.37,10.85,10.85,0,0,1,4-4.32,11.17,11.17,0,0,1,5.9-1.55h11.26V36.39a16.8,16.8,0,0,1,.14,2.16A12.51,12.51,0,0,1,292.1,47.34Z"/><path class="cls-2" d="M281.88,17.6a4.59,4.59,0,0,0-.75,0v0Z"/><path class="cls-1" d="M204.46,49.78a15.21,15.21,0,0,1-5.75,1.08,12.76,12.76,0,0,1-6.37-1.55,1.51,1.51,0,0,0-.17-.1L201.39,42l7.28-5.71L211,34.44l5.3-4.14a18.45,18.45,0,0,0-1.31-3,18.8,18.8,0,0,0-3.27-4.4,18.55,18.55,0,0,0-3.52-2.72,18.76,18.76,0,0,0-9.92-2.61,20.59,20.59,0,0,0-18,10.27,20.72,20.72,0,0,0-2.77,10.69,20.66,20.66,0,0,0,2.82,10.72A20.2,20.2,0,0,0,188,56.78a21.71,21.71,0,0,0,10.85,2.71,22.91,22.91,0,0,0,8.88-1.75,18.62,18.62,0,0,0,7.12-5.21l-5.87-5.94A11.86,11.86,0,0,1,204.46,49.78Zm-17.1-6.53A9.72,9.72,0,0,1,187,42a16.74,16.74,0,0,1,0-7.54,11.33,11.33,0,0,1,1-2.65,10.51,10.51,0,0,1,4-4.23,11.9,11.9,0,0,1,6.11-1.49,10.88,10.88,0,0,1,5.66,1.34,8.72,8.72,0,0,1,1.39,1l-7.24,6-9,7.54Z"/><rect class="cls-3" x="303.84" y="6.73" width="10.9" height="10.9"/><rect class="cls-1" x="44.92" y="5.52" width="9.09" height="9.09"/><polygon class="cls-1" points="260.53 58.66 249.47 58.66 240.09 44.83 239.83 45.2 230.62 58.66 219.89 58.66 234.73 38.09 234.75 38.06 220.64 18.44 231.85 18.52 231.96 18.52 243.22 34.33 260.53 58.66"/><polygon class="cls-1" points="220.64 18.44 234.75 38.06 234.73 38.09 220.64 18.44"/></g></g></svg>